<?xml version="1.0" standalone="no"?>
<!DOCTYPE svg PUBLIC "-//W3C//DTD SVG 20010904//EN"
 "http://www.w3.org/TR/2001/REC-SVG-20010904/DTD/svg10.dtd">
<svg version="1.0" xmlns="http://www.w3.org/2000/svg"
 width="2322.000000pt" height="2322.000000pt" viewBox="0 0 2322.000000 2322.000000"
 preserveAspectRatio="xMidYMid meet">

<g transform="translate(0.000000,2322.000000) scale(0.100000,-0.100000)"
fill="#000000" stroke="none">
<path d="M11130 23210 c-701 -31 -1380 -120 -2038 -266 -2884 -640 -5421
-2363 -7087 -4814 -1608 -2365 -2280 -5225 -1899 -8080 288 -2156 1184 -4189
2590 -5876 416 -498 966 -1050 1446 -1452 948 -790 1919 -1380 3043 -1847
1648 -686 3498 -978 5310 -840 3056 234 5860 1645 7886 3970 814 935 1488
2027 1965 3184 789 1913 1050 4019 754 6081 -266 1853 -961 3576 -2068 5122
-687 962 -1605 1885 -2577 2595 -1732 1263 -3735 2010 -5885 2193 -381 32
-1072 47 -1440 30z m140 -713 c-41 -68 -67 -128 -116 -266 -3 -8 -18 9 -40 45
-47 79 -90 122 -144 147 -38 17 -64 20 -166 19 -110 -1 -282 -17 -293 -28 -4
-4 23 -369 35 -479 l6 -51 34 4 c41 5 41 -4 18 271 -9 106 -12 197 -7 201 4 5
65 14 135 21 98 10 141 10 189 1 67 -12 131 -50 159 -93 l15 -24 -30 19 c-63
42 -111 65 -147 71 -31 6 -287 -11 -296 -20 -4 -4 28 -416 33 -432 3 -8 15
-11 32 -8 15 2 62 7 103 10 l76 6 64 107 c44 73 66 100 68 87 6 -43 39 -460
37 -463 -3 -3 -70 67 -131 136 l-29 32 -157 -12 c-132 -10 -158 -14 -158 -27
0 -9 11 -153 25 -321 14 -167 25 -306 25 -307 0 -5 66 -3 71 1 3 3 -5 126 -18
273 -12 147 -22 280 -22 294 l-1 26 123 10 c93 7 125 7 136 -3 10 -9 1 -13
-48 -18 -34 -3 -89 -9 -122 -12 l-61 -6 6 -57 c3 -31 13 -156 22 -278 l17
-223 41 0 c57 0 207 25 265 45 78 26 135 83 190 193 l48 96 17 -51 c26 -79 81
-162 159 -240 54 -55 67 -73 52 -73 -11 0 -69 -4 -130 -10 -338 -30 -1118 -91
-1127 -88 -5 2 27 34 71 72 45 38 81 72 81 75 0 3 -9 107 -20 231 -11 124 -20
237 -20 253 0 36 -18 35 -107 -7 -65 -31 -83 -35 -83 -16 0 11 92 57 138 69
38 11 42 15 42 42 0 31 0 31 -42 24 -59 -10 -106 -31 -150 -66 -42 -33 -46
-27 -22 29 28 69 110 131 172 132 12 0 25 6 28 14 5 13 -19 359 -31 451 -5 38
-11 44 -97 100 l-92 60 70 7 c38 4 272 23 519 43 248 20 488 39 535 43 47 5
88 7 92 5 4 -2 -15 -41 -42 -86z m1335 28 c158 -44 291 -138 342 -243 40 -81
40 -183 0 -264 -52 -105 -183 -201 -316 -229 -31 -7 -60 -15 -64 -20 -14 -11
59 -212 128 -354 71 -147 174 -307 243 -377 25 -26 44 -49 41 -51 -2 -2 -49
-18 -104 -36 -55 -18 -139 -52 -187 -75 l-87 -43 -6 66 c-13 136 -37 309 -56
406 -23 122 -77 327 -87 337 -5 5 -41 2 -81 -7 -40 -8 -87 -15 -106 -15 -19 0
-36 -3 -39 -8 -2 -4 -12 -102 -22 -219 l-17 -211 91 -116 c79 -99 89 -116 69
-116 -12 1 -145 11 -296 24 -195 17 -276 28 -282 37 -4 7 -7 15 -5 16 1 2 110
-6 242 -17 131 -12 251 -20 266 -18 28 3 28 3 -43 92 l-72 89 6 91 c3 50 12
155 18 233 l12 142 56 6 c89 8 174 24 182 32 4 4 5 21 2 37 l-6 28 -73 -6
c-41 -3 -107 -9 -147 -12 l-73 -6 -20 -256 -21 -257 59 -72 c53 -66 57 -73 36
-73 -42 1 -469 38 -473 42 -2 1 32 30 74 63 l78 59 12 166 c6 91 14 178 18
194 l5 29 -43 -6 c-24 -3 -59 -9 -76 -13 -21 -4 -33 -3 -33 4 0 12 45 28 108
37 39 6 42 9 42 37 l0 31 -85 -7 c-47 -3 -85 -2 -85 3 0 4 10 32 22 61 l22 52
67 -6 c66 -7 69 -6 73 16 3 13 14 142 26 287 17 214 18 266 8 273 -7 5 -32 20
-56 35 l-43 26 41 18 c60 27 164 58 245 74 98 19 388 13 470 -10z m-1234 -44
c-35 -52 -96 -168 -121 -234 -27 -68 -47 -87 -43 -41 2 31 79 193 127 269 28
42 40 55 46 45 5 -9 2 -24 -9 -39z m1676 -246 c23 -66 23 -184 0 -250 -37
-107 -135 -198 -271 -252 -37 -15 -70 -33 -73 -40 -8 -21 48 -182 101 -287 79
-157 140 -242 261 -362 l112 -111 -76 -17 c-108 -23 -219 -60 -339 -113 -66
-29 -107 -42 -113 -36 -21 21 241 127 427 173 l42 10 -87 88 c-96 97 -176 210
-244 347 -46 93 -110 256 -121 311 -6 29 -5 32 24 37 53 11 180 79 229 123 26
24 63 71 81 106 28 53 35 76 38 143 4 78 1 95 -42 210 -6 16 -4 15 13 -5 11
-14 28 -47 38 -75z m-3697 39 c120 -36 212 -108 250 -197 32 -72 38 -182 15
-244 -21 -54 -79 -121 -145 -167 l-45 -31 35 -6 c21 -3 47 1 64 9 47 23 116
93 144 147 24 44 27 61 27 150 0 93 -2 105 -33 167 -22 44 -52 84 -90 119
l-57 53 44 -25 c57 -31 107 -88 140 -158 21 -45 26 -75 29 -149 4 -88 2 -97
-27 -157 -20 -41 -51 -82 -87 -115 -31 -28 -55 -52 -53 -54 2 -1 25 -10 50
-20 109 -40 188 -117 231 -224 17 -44 22 -78 23 -147 0 -79 -3 -97 -28 -147
-38 -77 -104 -141 -191 -185 -59 -30 -145 -53 -500 -135 -236 -54 -433 -97
-438 -96 -5 2 18 39 50 83 33 43 58 84 57 89 -2 6 -27 115 -56 241 -28 127
-53 232 -55 234 -3 3 -36 -5 -74 -18 -65 -21 -90 -21 -90 -2 0 5 36 19 80 32
75 23 79 25 73 49 -3 14 -7 27 -10 29 -2 3 -44 -7 -94 -21 l-91 -26 6 22 c2
11 8 38 11 58 7 35 10 37 56 47 28 6 59 11 69 11 11 0 20 5 20 11 0 29 -94
415 -102 420 -5 3 -34 12 -64 18 -29 7 -56 16 -59 21 -8 13 118 118 206 173
119 74 282 134 425 157 78 12 216 4 284 -16z m5365 -129 c44 -14 123 -49 175
-77 232 -125 220 -120 283 -115 31 3 57 2 57 -3 0 -4 -16 -20 -35 -35 -20 -15
-78 -77 -129 -138 -131 -157 -122 -154 -129 -46 -7 113 -37 179 -114 249 -138
126 -356 122 -447 -8 -25 -35 -31 -55 -34 -111 -8 -129 51 -196 302 -346 248
-147 325 -228 363 -379 14 -59 15 -79 4 -140 -26 -155 -103 -262 -234 -326
-198 -97 -365 -70 -679 109 -196 111 -226 123 -303 119 -33 -1 -62 0 -65 2 -2
3 40 48 94 100 54 52 122 127 152 167 30 40 60 73 66 73 7 0 8 -16 4 -47 -21
-165 81 -342 240 -417 189 -90 353 -82 446 22 37 41 68 120 68 172 0 44 -25
115 -58 163 -48 69 -124 123 -367 258 -110 61 -205 152 -240 230 -62 140 -18
337 101 451 43 40 120 82 180 98 67 16 211 5 299 -25z m-3631 -98 c16 -148 37
-449 32 -454 -17 -17 -25 29 -40 222 -9 116 -19 229 -22 252 -4 35 -3 42 10
37 9 -4 17 -25 20 -57z m3659 -71 c66 -32 124 -86 148 -140 33 -72 21 -81 -22
-17 -50 76 -115 126 -187 147 -101 30 -188 1 -231 -77 -31 -55 -27 -106 14
-186 l36 -68 -31 30 c-85 81 -94 201 -22 279 68 72 187 85 295 32z m540 -82
c3 -4 -40 -57 -97 -118 -57 -61 -119 -129 -139 -151 -29 -32 -38 -38 -48 -27
-15 14 -8 22 166 200 100 102 106 107 118 96z m702 -229 c105 -48 191 -88 193
-90 2 -2 -38 -17 -87 -35 -50 -18 -97 -38 -106 -44 -8 -6 -60 -110 -115 -231
l-101 -219 23 -18 c13 -10 25 -18 28 -18 3 0 50 100 104 221 55 121 105 224
110 228 6 4 44 21 85 36 60 23 75 25 82 14 6 -11 -10 -21 -71 -44 l-79 -29
-100 -220 -100 -220 67 -38 c68 -38 262 -124 295 -130 14 -2 38 43 127 239
l110 243 -34 82 c-19 46 -33 84 -32 86 6 5 461 -207 459 -215 -1 -4 -43 -21
-95 -38 -72 -24 -96 -37 -105 -56 -6 -13 -120 -261 -252 -552 l-240 -527 35
-81 c19 -45 33 -83 32 -85 -2 -1 -108 45 -236 103 -127 59 -230 108 -229 110
2 1 46 15 97 30 l94 28 98 215 c54 118 98 221 98 228 0 6 -8 12 -18 12 -34 0
-139 41 -247 96 -59 30 -109 53 -111 51 -3 -3 -53 -109 -104 -222 -12 -27 -40
-87 -61 -133 l-38 -83 40 -136 c22 -74 38 -137 37 -138 -2 -1 -123 52 -270
119 -239 108 -290 137 -274 154 3 3 114 -45 248 -106 133 -62 244 -109 247
-107 3 3 -10 52 -29 109 l-33 104 108 238 c59 132 109 240 110 242 1 1 58 -27
126 -62 125 -65 184 -89 251 -101 30 -6 38 -4 47 13 10 18 4 22 -67 47 -94 34
-238 100 -321 149 -34 20 -63 36 -65 36 -2 0 -56 -117 -121 -260 l-118 -260
37 -81 c20 -45 35 -84 33 -86 -5 -4 -447 195 -460 207 -7 7 73 35 154 55 23 6
40 36 132 238 92 201 104 233 89 239 -27 11 -111 9 -134 -3 -13 -7 -23 -8 -30
-1 -25 25 93 51 155 34 33 -9 38 -8 47 9 9 16 6 21 -17 31 -37 15 -142 15
-172 -1 -15 -8 -27 -9 -33 -3 -13 13 71 71 131 89 25 8 67 13 94 12 26 -2 51
1 55 7 5 5 54 111 111 235 l102 225 -40 94 c-23 51 -41 95 -41 96 0 4 52 -20
295 -131z m-8206 93 c52 -16 75 -31 121 -77 73 -73 94 -131 88 -242 -6 -110
-47 -189 -149 -291 l-77 -77 97 -94 c110 -106 179 -160 302 -240 83 -54 235
-133 300 -156 l32 -11 -86 -89 c-47 -48 -106 -117 -132 -152 -26 -35 -49 -64
-51 -64 -1 0 -40 56 -84 124 -107 164 -239 335 -340 444 l-82 87 -46 -38 c-26
-21 -68 -53 -94 -70 l-47 -32 66 -158 c36 -86 72 -176 81 -199 15 -40 21 -44
141 -99 69 -32 130 -61 134 -64 11 -10 -534 -232 -552 -225 -8 3 -11 9 -5 14
5 5 116 53 247 107 130 54 237 101 237 104 0 4 -44 26 -97 50 -54 24 -102 47
-107 51 -11 9 -176 409 -176 425 0 7 24 26 54 43 29 17 73 48 96 69 l43 38
-18 27 -18 27 -31 -20 c-17 -12 -73 -46 -123 -76 -51 -30 -93 -58 -93 -61 0
-8 169 -421 186 -454 9 -19 36 -36 94 -59 44 -19 77 -37 73 -41 -11 -11 -445
-190 -450 -186 -2 2 15 43 38 91 l41 87 -73 177 c-39 97 -73 179 -75 181 -1 2
-30 -18 -63 -43 -39 -30 -62 -42 -67 -35 -3 6 -2 14 3 18 5 3 32 24 59 46 27
21 51 41 53 42 7 5 -18 53 -28 53 -5 0 -40 -20 -77 -45 -37 -25 -68 -44 -70
-43 -1 2 -5 32 -9 68 l-7 65 49 17 c91 32 93 12 -27 300 -58 142 -108 260
-111 262 -3 3 -30 6 -62 8 -35 2 -57 7 -57 15 0 23 179 191 261 246 253 167
482 218 688 155z m201 -44 c48 -43 83 -102 104 -173 21 -72 20 -136 -3 -209
-19 -63 -91 -180 -135 -221 -14 -14 -26 -30 -26 -37 0 -21 185 -190 272 -247
144 -96 268 -151 451 -199 l49 -13 -87 -74 c-83 -71 -209 -206 -264 -283 -22
-33 -51 -50 -51 -32 0 26 170 224 259 302 42 36 77 68 78 71 2 3 -34 16 -79
29 -202 56 -409 185 -605 375 l-71 70 60 71 c179 212 181 419 6 581 -48 44
-54 54 -29 41 18 -10 50 -33 71 -52z m1885 -216 c93 -102 129 -278 86 -417
-45 -145 -154 -248 -321 -304 -73 -25 -838 -199 -857 -195 -9 2 -16 7 -15 12
1 6 180 51 399 102 529 123 582 142 677 243 93 100 124 221 92 364 -19 86 -72
177 -129 223 -20 15 -33 32 -31 36 8 12 62 -22 99 -64z m4284 13 c30 -59 91
-105 300 -230 224 -134 286 -185 306 -253 16 -53 5 -65 -15 -18 -23 55 -95
113 -266 215 -279 166 -340 216 -359 298 -10 41 11 34 34 -12z m-2774 -89 c6
-4 28 -34 49 -67 21 -33 79 -100 127 -148 l89 -88 -25 -49 c-16 -33 -33 -51
-48 -54 -12 -3 -285 -25 -607 -51 -322 -25 -593 -47 -602 -49 -9 -2 -25 2 -35
9 -17 12 -16 14 7 19 21 4 868 73 1130 92 110 8 114 9 128 48 l13 35 -89 88
c-73 73 -162 192 -162 217 0 8 13 7 25 -2z m3697 -259 c27 -58 32 -79 32 -148
1 -188 -104 -351 -279 -435 -108 -52 -171 -64 -296 -58 -133 7 -230 39 -382
125 -180 103 -252 135 -327 146 -42 7 -72 17 -75 25 -4 12 8 14 63 10 75 -4
139 -32 349 -151 251 -143 445 -163 651 -67 66 31 160 112 197 170 12 19 32
62 45 95 32 83 33 226 2 303 -31 74 -17 64 20 -15z m1805 31 c2 -6 -32 -23
-75 -38 l-78 -27 -242 -532 c-133 -293 -242 -541 -242 -551 0 -9 16 -71 36
-137 20 -66 34 -122 31 -125 -4 -4 -220 90 -479 210 -47 22 -78 51 -66 61 2 2
115 -49 252 -111 137 -63 250 -113 252 -111 2 1 -12 51 -30 110 l-34 106 250
550 251 550 76 30 c78 30 92 32 98 15z m-2737 -77 c0 -95 43 -203 113 -285 32
-37 16 -30 -37 17 -63 57 -106 160 -106 258 0 40 4 53 15 53 11 0 15 -11 15
-43z m-8209 -275 c-8 -51 -8 -70 2 -79 21 -20 352 -263 359 -263 3 0 11 23 18
50 7 28 16 52 20 55 4 3 32 -15 61 -39 30 -23 73 -54 96 -67 l42 -25 -62 -45
c-54 -40 -98 -92 -86 -103 2 -2 111 -83 241 -180 l238 -178 102 -9 c56 -5 104
-11 105 -13 2 -2 -47 -36 -109 -77 -62 -40 -167 -108 -232 -151 -66 -43 -122
-78 -126 -78 -4 0 6 43 22 96 25 79 28 98 17 105 -8 4 -72 51 -144 103 -89 66
-131 92 -136 83 -11 -19 -29 -162 -29 -233 0 -52 -3 -64 -16 -64 -14 0 -15 11
-9 88 4 48 13 122 19 165 12 75 12 79 -8 93 -17 12 -21 12 -28 0 -14 -24 -36
-148 -43 -239 -5 -61 -10 -87 -18 -83 -72 32 -255 105 -264 106 -18 0 -16 -35
7 -126 49 -189 107 -262 257 -318 54 -20 106 -40 116 -44 14 -6 -10 -25 -110
-90 -70 -46 -186 -121 -257 -168 -115 -75 -167 -99 -166 -76 0 4 108 77 240
162 131 85 237 157 234 161 -2 4 -28 15 -57 25 -86 28 -143 61 -181 105 -42
50 -90 168 -119 295 -20 88 -22 93 -50 98 -17 3 -33 4 -35 1 -6 -6 52 -226 80
-301 41 -111 102 -163 231 -195 l49 -12 -233 -153 c-129 -84 -235 -151 -237
-150 -1 2 7 25 19 52 76 178 78 345 4 650 -21 91 -30 113 -46 117 -21 6 -117
-16 -148 -33 -16 -8 -19 -2 -25 73 -3 45 -9 95 -13 111 -5 27 -4 29 18 22 13
-3 53 -9 87 -13 63 -6 64 -6 60 18 -3 25 -9 27 -120 44 -25 4 -38 11 -38 22 0
13 10 14 74 8 l74 -7 -14 64 c-8 35 -32 135 -52 223 l-37 160 -80 22 c-44 12
-82 22 -84 22 -8 2 49 41 233 160 103 67 191 120 194 117 3 -3 0 -41 -6 -83
l-11 -78 32 -26 c32 -27 373 -279 393 -292 6 -3 16 4 22 17 10 22 0 31 -184
167 -107 78 -194 149 -194 156 0 41 25 169 34 175 16 11 19 -24 7 -100z
m11618 -72 c162 -31 351 -157 426 -284 140 -239 93 -552 -127 -848 -109 -145
-235 -248 -373 -303 -92 -37 -250 -47 -341 -20 -168 48 -321 175 -392 325 -52
109 -66 173 -66 290 0 196 98 410 273 602 166 181 403 276 600 238z m-11059
-178 c28 -22 87 -60 131 -87 l80 -47 -100 -55 c-55 -31 -98 -59 -96 -64 3 -4
103 -79 223 -167 l217 -159 163 -23 c89 -13 162 -26 162 -29 -1 -8 -537 -355
-555 -359 -7 -2 -16 1 -19 6 -3 5 107 83 244 172 138 90 249 164 247 166 -2 2
-61 13 -130 23 -70 11 -133 23 -139 27 -38 22 -458 337 -458 344 0 11 55 52
123 90 l58 32 -75 45 c-88 52 -170 122 -144 123 10 0 40 -17 68 -38z m11626
-287 c24 -75 29 -235 10 -323 -60 -284 -292 -590 -541 -712 -108 -53 -190 -73
-305 -74 -162 -1 -323 66 -441 183 -53 54 -120 158 -134 211 -3 14 7 1 24 -28
116 -205 370 -346 593 -328 240 19 459 163 619 406 170 257 215 503 134 735
-7 20 -7 20 9 0 9 -11 24 -42 32 -70z m895 -627 c280 -276 340 -368 347 -533
5 -119 -17 -182 -96 -266 -76 -82 -135 -111 -238 -117 -155 -8 -248 42 -492
267 l-114 104 -33 -34 c-18 -19 -105 -109 -192 -201 l-158 -167 6 -88 c3 -48
4 -90 2 -92 -2 -4 -373 351 -373 358 0 2 44 1 99 -3 l99 -7 161 168 162 168
-38 32 c-21 18 -55 40 -75 49 -39 18 -50 34 -23 34 29 0 90 -31 123 -63 l32
-31 22 22 c22 21 22 21 2 43 -33 37 -100 78 -148 91 -63 17 -44 38 36 38 66 0
108 -15 154 -53 18 -15 34 -27 37 -27 2 0 93 92 201 204 l196 204 -7 99 -6 98
59 -52 c32 -29 147 -139 255 -245z m-6731 168 c1959 -169 3711 -971 5119
-2341 206 -201 527 -558 693 -772 l47 -61 -60 -37 c-273 -168 -521 -494 -644
-846 -74 -212 -105 -396 -105 -629 0 -242 39 -451 125 -667 25 -61 45 -113 45
-115 0 -6 -72 -41 -162 -78 -129 -53 -160 -107 -160 -277 -1 -80 3 -100 25
-145 31 -62 62 -85 178 -134 46 -19 88 -39 92 -44 5 -4 5 -1609 1 -3567 l-7
-3559 -76 -39 c-238 -125 -299 -326 -148 -491 57 -63 101 -88 186 -108 34 -8
77 -24 97 -36 l36 -23 -59 -59 c-104 -107 -375 -359 -513 -477 -1239 -1064
-2730 -1723 -4360 -1930 -348 -45 -546 -55 -1010 -56 -469 0 -603 7 -979 51
-1506 177 -2908 753 -4110 1687 -250 195 -472 390 -739 652 l-184 180 56 16
c76 23 138 61 175 108 104 131 94 281 -25 392 -48 44 -150 110 -193 124 l-21
6 -2 3245 c-2 1784 -3 3389 -3 3566 l0 322 94 38 c115 46 152 74 182 135 20
41 24 63 24 148 -1 177 -32 229 -176 283 -46 18 -98 41 -116 51 l-31 20 43
108 c49 119 97 301 116 433 18 126 15 384 -5 516 -60 392 -227 735 -486 995
-63 64 -134 129 -157 144 -24 15 -43 32 -43 37 0 12 67 98 224 287 1183 1423
2829 2415 4636 2795 395 83 808 138 1240 166 209 13 925 4 1140 -14z m-7635
-21 c33 -9 82 -30 108 -48 64 -42 133 -135 153 -205 20 -66 14 -165 -11 -230
-10 -24 -16 -45 -13 -47 2 -2 24 1 48 6 167 39 357 -56 437 -218 24 -50 28
-69 27 -143 -1 -104 -24 -168 -91 -257 -40 -52 -412 -416 -621 -607 l-53 -49
8 79 c4 43 7 91 8 105 0 21 -36 64 -168 203 -93 97 -173 176 -177 176 -5 0
-28 -24 -52 -54 -24 -30 -48 -55 -55 -55 -29 -2 -19 22 33 79 l57 61 -22 22
-23 22 -64 -69 c-35 -38 -65 -68 -67 -65 -2 2 -12 27 -21 54 l-17 50 51 48 52
47 -33 38 c-18 20 -84 91 -148 158 l-116 121 -64 -18 c-36 -10 -67 -17 -69
-14 -8 8 19 96 56 184 57 130 123 223 246 346 125 124 218 182 342 211 179 42
342 -31 414 -184 31 -66 25 -184 -13 -266 -15 -32 -25 -61 -23 -63 2 -3 18 3
36 12 52 27 85 110 85 215 0 105 -21 156 -96 235 -61 64 -128 100 -225 119
-66 14 -67 14 -24 15 25 1 73 -6 105 -14z m612 -495 c76 -38 166 -128 204
-205 64 -131 62 -254 -7 -394 -32 -65 -58 -97 -178 -216 -300 -299 -535 -517
-553 -513 -12 2 73 90 284 292 371 355 426 420 458 541 19 76 19 137 -1 206
-43 146 -186 276 -326 295 -65 9 -61 24 5 24 40 0 70 -8 114 -30z m14173 -286
c0 -48 -29 -133 -65 -189 -43 -67 -129 -147 -196 -181 -71 -36 -191 -45 -270
-19 -107 34 -239 126 -385 267 l-90 87 -166 -175 -165 -175 -7 -132 c-4 -72
-9 -133 -11 -135 -2 -3 -97 84 -210 193 -138 134 -205 205 -205 219 0 21 -1
22 286 -257 l101 -99 6 54 c4 29 7 80 7 112 l0 60 87 90 c48 50 130 135 182
189 l94 97 111 -108 c127 -123 213 -187 312 -234 62 -30 78 -33 159 -33 82 0
97 3 157 33 132 65 231 202 245 340 6 56 23 53 23 -4z m-15080 -2290 c458 -74
882 -401 1111 -855 219 -437 218 -868 -3 -1433 l-51 -129 -666 6 c-366 4 -954
7 -1307 7 l-641 0 -35 78 c-76 166 -128 342 -154 522 -23 158 -15 443 15 584
180 838 910 1352 1731 1220z m14880 0 c165 -27 397 -114 534 -202 91 -59 206
-154 292 -245 391 -409 529 -1028 359 -1612 -33 -111 -124 -336 -139 -340 -6
-2 -596 -6 -1311 -9 l-1300 -6 -37 92 c-179 441 -222 803 -137 1148 69 279
236 559 465 780 348 335 789 471 1274 394z m-13564 -2559 c87 -33 119 -112 95
-230 -7 -33 -14 -62 -16 -64 -11 -10 -239 -31 -465 -43 -346 -17 -2014 -17
-2340 0 -261 14 -409 29 -426 43 -28 23 -34 170 -10 217 9 17 28 39 44 50 67
48 24 47 1597 46 1355 -2 1480 -3 1521 -19z m14809 1 c52 -21 90 -61 107 -117
9 -33 9 -54 -3 -112 l-14 -72 -43 -7 c-344 -58 -2481 -63 -3056 -8 -60 6 -117
15 -126 20 -12 6 -22 32 -30 74 -24 129 23 210 134 233 20 5 700 7 1512 7
1361 -1 1478 -3 1519 -18z m-15045 -1266 l0 -580 -32 -21 c-205 -127 -2510
-1189 -2583 -1189 -3 0 -5 263 -5 585 l0 585 39 24 c178 113 1805 869 2341
1088 190 78 213 87 228 87 9 1 12 -121 12 -579z m12307 551 c312 -114 1584
-693 2214 -1008 l306 -152 7 -587 c4 -322 5 -589 1 -592 -21 -22 -1698 739
-2357 1070 l-258 129 0 187 c0 103 -3 366 -7 585 -5 293 -3 397 5 397 6 0 46
-13 89 -29z m-12307 -3278 l0 -518 -1301 -590 c-715 -324 -1305 -591 -1310
-593 -5 -2 -9 205 -9 507 l0 511 39 24 c222 141 2483 1175 2569 1176 9 0 12
-110 12 -517z m12310 488 c364 -141 1739 -769 2293 -1048 l227 -114 1 -487 c1
-268 3 -499 5 -514 1 -16 0 -28 -3 -28 -3 0 -216 95 -472 211 -256 117 -734
333 -1061 481 -327 149 -705 320 -840 382 l-245 111 -3 518 c-2 415 0 517 11
517 7 0 46 -13 87 -29z m-12315 -3579 c-7 -19 -405 -213 -578 -280 -396 -157
-596 -182 -1287 -163 -234 6 -498 11 -587 11 l-163 0 0 85 c0 95 15 145 52
169 12 8 93 44 178 79 182 76 405 178 920 422 899 425 1258 587 1410 635 l55
18 3 -482 c1 -264 0 -487 -3 -494z m12306 949 c111 -38 525 -221 874 -386 66
-32 156 -74 200 -95 44 -21 172 -81 285 -135 512 -242 807 -377 1041 -474 42
-17 86 -42 98 -55 23 -24 40 -108 41 -193 l0 -43 -172 0 c-95 0 -358 -5 -584
-11 -558 -16 -765 -1 -1024 71 -194 55 -429 153 -692 288 l-148 75 0 202 c0
111 -3 331 -7 488 -7 328 -15 304 88 268z m-12741 -1631 c411 -9 607 -20 706
-40 l51 -11 13 -59 c7 -33 10 -83 8 -112 -7 -68 -50 -111 -129 -127 -39 -8
-475 -11 -1529 -9 l-1475 3 -56 26 c-172 81 -150 250 39 305 86 25 1627 41
2372 24z m14636 0 c859 -10 845 -9 922 -67 117 -88 61 -235 -104 -278 -54 -14
-232 -15 -1535 -13 l-1474 3 -47 22 c-54 25 -78 56 -85 113 -7 53 15 158 36
170 45 23 282 41 681 50 469 10 749 10 1606 0z m-14256 -484 c0 -13 -66 -94
-105 -129 -116 -103 -320 -197 -570 -262 -185 -48 -312 -66 -531 -72 -375 -11
-685 48 -961 182 -95 47 -130 71 -225 156 -62 55 -118 109 -126 120 -13 19 9
19 1252 19 1060 0 1266 -2 1266 -14z m14853 -2 c-3 -9 -61 -64 -128 -123 -94
-82 -143 -117 -216 -152 -184 -91 -386 -148 -623 -175 -168 -20 -483 -14 -641
10 -339 54 -652 175 -805 313 -52 47 -110 118 -110 135 0 4 569 8 1265 8 1157
0 1264 -1 1258 -16z m-15917 -596 c-4 -29 -19 -78 -34 -108 -37 -74 -91 -104
-175 -96 -120 12 -142 39 -171 213 l-5 32 137 4 c75 1 163 4 196 5 l59 2 -7
-52z m14843 36 c7 -6 -21 -138 -35 -166 -45 -87 -215 -102 -286 -26 -27 29
-49 89 -64 170 l-6 38 193 -7 c107 -3 196 -7 198 -9z m-3223 -1387 l-38 -122
167 -320 c92 -176 188 -360 214 -410 26 -49 103 -196 171 -326 l123 -237 109
-22 c59 -13 108 -24 108 -26 0 -5 -552 -294 -563 -294 -3 0 15 48 40 108 25
59 46 112 46 117 0 8 -222 439 -413 800 -26 50 -91 173 -143 275 -53 102 -102
193 -110 203 -8 12 -56 30 -135 51 l-123 32 288 150 c158 83 290 149 292 147
2 -1 -13 -58 -33 -126z m128 94 c3 -4 -8 -49 -25 -100 l-31 -91 330 -633 330
-632 161 -60 c88 -33 161 -62 161 -65 0 -5 -119 -68 -495 -263 -127 -65 -158
-76 -169 -58 -3 5 121 75 277 156 155 81 286 150 290 154 5 5 -50 30 -121 56
l-129 49 -337 644 -336 645 32 103 c29 95 46 121 62 95z m-7822 -452 c-4 -3
-47 -23 -96 -44 -48 -22 -90 -44 -92 -50 -4 -11 -44 -571 -44 -617 0 -20 5
-28 18 -28 41 1 43 10 62 291 11 151 20 281 20 291 0 9 12 21 28 26 15 6 62
26 104 45 66 31 78 34 89 21 10 -12 -4 -21 -84 -59 -89 -41 -96 -47 -101 -77
-5 -29 -36 -484 -36 -515 0 -8 21 -5 71 9 39 11 72 18 74 16 2 -2 -1 -23 -5
-48 -5 -25 -9 -91 -10 -147 l0 -102 -64 29 c-36 17 -90 33 -120 36 -52 6 -55
5 -60 -17 -3 -13 -16 -179 -30 -367 l-24 -344 61 -116 c33 -63 54 -113 46
-110 -57 22 -618 282 -615 285 2 2 55 18 117 36 l114 32 12 180 c7 99 12 197
10 217 l-2 38 -99 -45 c-54 -24 -129 -62 -165 -84 -43 -26 -69 -36 -76 -30 -7
7 -2 17 15 29 28 21 168 92 273 139 62 28 67 32 67 61 0 30 -2 32 -27 25 -63
-15 -184 -68 -267 -115 -48 -28 -89 -50 -90 -48 -1 2 -10 53 -20 113 -26 164
-48 255 -60 255 -19 0 -173 -164 -214 -229 -81 -125 -89 -211 -39 -413 l24
-96 -56 24 c-355 157 -630 289 -634 305 -3 11 -2 19 3 19 4 0 146 -63 315
-140 169 -77 311 -140 315 -140 4 0 -2 33 -12 73 -11 39 -20 110 -21 157 -2
76 1 92 29 150 35 75 122 186 217 279 63 61 65 65 55 95 -6 17 -14 35 -18 39
-7 8 -185 -175 -250 -258 -89 -112 -107 -206 -67 -345 14 -47 25 -86 24 -87
-1 -1 -141 62 -312 140 l-309 142 79 13 c161 27 292 85 421 188 68 54 271 252
315 306 l29 36 -38 49 c-22 26 -58 59 -80 73 -23 14 -42 27 -42 30 0 3 14 14
31 24 17 10 62 45 100 77 37 33 70 59 72 59 2 0 21 -40 41 -90 21 -49 41 -92
45 -95 5 -2 18 6 30 19 l22 24 -41 81 c-22 45 -38 86 -35 91 15 24 37 4 71
-66 l38 -75 195 195 195 195 -32 99 c-18 54 -32 101 -32 104 0 3 130 -53 289
-126 160 -72 287 -134 283 -137z m7004 12 l-45 -122 261 -577 c143 -317 278
-615 298 -661 21 -46 44 -87 52 -91 7 -4 51 -17 98 -30 47 -12 89 -25 93 -29
4 -4 -18 -20 -50 -34 -32 -14 -162 -73 -289 -130 l-231 -104 53 113 54 113
-199 438 c-109 241 -244 540 -300 665 l-103 227 -119 37 c-66 21 -116 41 -111
46 9 9 576 267 580 263 1 -1 -18 -57 -42 -124z m134 79 c0 -5 -14 -46 -32 -91
-17 -46 -31 -88 -31 -94 0 -5 109 -251 242 -545 134 -294 265 -584 292 -645
l50 -110 147 -64 c81 -36 153 -68 160 -71 8 -4 -42 -32 -120 -67 -495 -225
-519 -235 -546 -228 l-27 7 25 12 c14 7 152 71 308 141 l282 128 -97 43 c-178
79 -147 39 -305 389 -316 701 -398 883 -426 944 -26 58 -28 68 -17 95 7 17 24
63 39 103 20 52 31 70 42 66 8 -3 14 -9 14 -13z m-1366 -507 c-26 -49 -54
-100 -62 -115 -15 -25 -6 -58 183 -720 109 -381 203 -698 209 -704 6 -7 49
-28 96 -49 47 -20 88 -40 93 -44 4 -4 -129 -46 -295 -94 -166 -48 -303 -85
-305 -84 -1 2 27 47 63 100 58 85 65 101 60 130 -4 17 -93 333 -199 702 l-193
670 -114 59 c-68 35 -109 61 -100 64 60 21 579 170 593 171 16 1 11 -13 -29
-86z m-4591 47 c205 -43 347 -113 459 -224 143 -141 181 -316 107 -485 -49
-112 -158 -188 -304 -212 -41 -6 -75 -16 -75 -20 0 -5 16 -17 36 -27 30 -15
47 -17 101 -10 171 20 302 139 348 315 29 111 17 214 -40 326 -19 37 -33 67
-31 67 2 0 20 -24 39 -53 49 -74 77 -162 77 -244 -1 -219 -134 -389 -342 -435
-29 -6 -55 -13 -57 -14 -2 -2 20 -29 48 -60 140 -153 170 -358 81 -541 -40
-82 -109 -148 -195 -189 -118 -56 -233 -64 -407 -28 -102 21 -941 214 -958
220 -9 3 25 26 88 59 57 29 108 57 112 61 6 7 140 569 140 589 0 5 -125 25
-158 25 -25 0 -32 4 -32 20 0 24 31 26 132 6 73 -14 78 -11 78 39 0 21 -7 24
-87 39 -49 9 -98 16 -110 16 -13 0 -23 3 -23 6 0 4 39 56 81 107 4 5 41 -1 84
-13 43 -12 81 -18 85 -13 4 4 33 118 63 253 l56 245 -67 61 -67 62 68 21 c61
19 175 43 252 55 72 11 323 -4 418 -24z m4720 -16 c-1 -5 -22 -46 -47 -91
l-46 -81 160 -559 c88 -307 177 -616 197 -686 l37 -128 147 -92 c81 -50 146
-93 145 -95 -2 -1 -158 -47 -347 -101 -260 -75 -349 -96 -363 -89 -10 5 -14
13 -10 17 5 5 149 47 319 96 171 48 311 88 312 90 2 1 -219 143 -234 149 0 1
-91 316 -202 700 l-200 700 51 93 c36 65 57 93 67 90 9 -2 15 -7 14 -13z
m-1108 -248 c130 -35 265 -126 344 -231 118 -156 175 -328 201 -604 29 -303
-38 -541 -199 -701 -110 -110 -222 -167 -403 -205 -56 -12 -718 -105 -746
-105 -4 0 32 39 80 87 l86 88 -9 60 c-5 33 -47 355 -94 715 -47 360 -88 664
-90 676 -2 11 -42 52 -87 90 l-83 69 130 18 c494 67 486 66 650 63 107 -2 180
-9 220 -20z m-1777 -35 l143 -6 -70 -77 c-39 -42 -71 -79 -71 -82 0 -6 189
-547 205 -588 8 -21 25 -23 48 -5 15 11 8 36 -78 281 -52 147 -95 273 -95 280
0 6 33 47 73 91 57 62 77 77 92 72 20 -8 22 -5 -89 -124 l-39 -42 93 -265 92
-265 55 44 c30 25 58 45 62 45 4 0 15 -30 25 -67 9 -36 31 -96 47 -131 16 -36
29 -68 29 -71 0 -3 -33 -6 -73 -6 -74 -1 -167 -21 -167 -37 0 -5 27 -89 61
-186 33 -97 86 -251 117 -340 l55 -164 99 -79 c54 -44 98 -82 98 -84 0 -7
-654 7 -668 15 -10 5 15 30 78 80 50 40 89 78 87 84 -2 6 -34 98 -72 204 -37
105 -72 192 -76 192 -11 0 -153 -163 -198 -227 -21 -31 -44 -52 -55 -53 -18 0
-18 1 -1 28 31 47 77 104 163 199 70 79 82 96 76 118 -3 14 -10 27 -14 30 -14
8 -155 -133 -220 -220 -55 -75 -66 -85 -75 -70 -30 52 -187 284 -198 293 -10
8 -21 -9 -50 -79 -57 -134 -80 -237 -75 -329 5 -90 26 -134 131 -271 l69 -92
-203 6 c-112 4 -279 7 -370 7 -154 0 -169 2 -190 21 l-24 20 353 -7 c193 -3
352 -3 352 0 0 4 -25 39 -55 79 -70 93 -95 151 -101 235 -7 80 22 203 84 360
l39 101 -28 27 c-16 15 -32 25 -35 21 -8 -7 -90 -242 -115 -327 -22 -75 -24
-178 -5 -232 13 -37 56 -98 110 -156 l30 -32 -170 1 c-93 1 -248 4 -344 8
l-175 6 35 19 c63 33 177 126 226 182 93 109 177 275 269 527 26 72 31 98 22
105 -26 21 -94 50 -144 62 -29 6 -53 14 -53 16 0 2 15 27 34 56 18 29 44 78
56 108 13 30 25 57 26 59 2 2 38 -29 80 -68 42 -40 81 -68 85 -64 4 4 10 19
14 33 5 23 -3 33 -64 85 -52 45 -67 63 -59 72 15 19 18 18 89 -41 l65 -53 97
251 c53 138 97 256 97 262 0 6 -24 37 -53 70 -93 105 -104 94 94 93 96 -1 238
-4 317 -8z m2138 -87 c145 -97 250 -292 294 -549 65 -382 12 -686 -155 -897
-107 -134 -295 -233 -547 -287 -164 -35 -657 -96 -670 -83 -7 7 -9 15 -5 19 4
3 136 23 295 44 324 43 449 67 568 110 243 89 406 267 476 521 25 94 35 345
19 473 -41 316 -147 533 -330 672 -36 28 4 11 55 -23z m-5061 -219 c0 -107 -2
-194 -6 -192 -3 1 -56 31 -117 66 -62 35 -116 60 -120 56 -4 -3 -17 -153 -29
-331 l-21 -324 80 -178 c44 -97 82 -182 85 -189 2 -6 -161 64 -364 156 -315
143 -368 171 -371 190 -2 13 0 21 5 18 24 -14 655 -298 658 -295 1 2 -28 70
-64 151 l-66 148 23 346 c12 191 25 349 28 352 9 9 115 -32 180 -70 l64 -38 0
128 c0 153 8 227 23 212 7 -7 11 -83 12 -206z m3495 -473 c16 -45 48 -122 73
-172 l44 -90 -26 0 c-14 0 -75 5 -134 11 -59 6 -110 9 -114 6 -5 -6 149 -455
199 -582 15 -37 39 -67 92 -115 178 -162 219 -201 215 -204 -10 -11 -792 14
-805 25 -29 24 -11 29 89 24 56 -3 221 -7 367 -10 l265 -5 -123 118 -123 117
-115 323 c-62 178 -114 328 -114 334 0 8 40 9 134 6 l133 -5 -35 76 c-37 81
-82 205 -82 228 0 10 5 11 16 5 8 -5 28 -45 44 -90z m-1854 -151 c57 -87 70
-217 34 -355 -26 -103 -63 -168 -135 -241 -129 -129 -304 -178 -515 -144 -55
8 -864 190 -983 220 -33 9 -57 32 -46 44 3 2 200 -41 439 -96 481 -110 631
-139 726 -139 288 0 495 209 494 499 0 80 -16 145 -54 234 -15 33 13 17 40
-22z"/>
<path d="M12240 22457 l-45 -12 -25 -310 -25 -310 28 -3 c16 -2 31 -2 33 0 2
2 13 130 26 285 l23 281 45 6 c55 7 178 -7 241 -29 51 -18 107 -61 141 -108
l23 -32 -30 23 c-78 59 -118 84 -157 98 -48 17 -208 29 -224 17 -11 -8 -59
-532 -49 -541 10 -10 168 20 239 45 130 47 200 110 231 209 54 173 -57 341
-253 383 -66 14 -163 13 -222 -2z"/>
<path d="M8968 22171 c-61 -20 -127 -56 -169 -93 l-27 -23 58 -250 c57 -252
64 -268 100 -246 12 8 7 41 -34 220 -26 115 -49 218 -50 227 -2 25 67 70 143
94 80 25 173 26 226 1 47 -22 118 -91 93 -91 -8 0 -21 7 -29 16 -7 8 -35 27
-63 41 -89 45 -228 29 -306 -35 l-33 -28 48 -215 c27 -118 50 -216 52 -218 6
-9 168 40 227 69 127 60 186 139 186 248 0 183 -119 303 -298 301 -37 0 -93
-8 -124 -18z"/>
<path d="M9175 21513 c-34 -5 -259 -54 -262 -57 -4 -3 136 -619 141 -624 2 -1
15 0 30 4 20 5 25 11 21 28 -58 230 -120 532 -111 537 28 16 210 52 288 57
101 6 157 -10 214 -60 47 -42 43 -54 -6 -19 -80 58 -194 64 -377 21 -86 -20
-93 -23 -88 -43 3 -12 30 -129 59 -260 30 -131 56 -240 58 -243 8 -7 229 56
281 80 111 53 171 143 171 256 0 147 -73 281 -171 314 -44 15 -170 20 -248 9z"/>
<path d="M7354 21647 c-64 -21 -159 -76 -192 -110 l-31 -32 114 -277 c62 -153
116 -282 120 -287 7 -12 55 7 55 21 0 5 -48 124 -106 266 -121 293 -121 260 1
317 127 59 220 68 310 30 52 -21 39 -28 -25 -14 -88 19 -178 7 -265 -34 -41
-20 -78 -42 -80 -49 -4 -10 186 -492 199 -505 8 -8 164 117 208 166 26 29 59
77 75 108 69 141 4 323 -137 386 -56 26 -187 33 -246 14z"/>
<path d="M5700 20518 c0 -14 97 -464 104 -483 2 -6 30 -16 62 -23 33 -8 104
-30 159 -51 l100 -38 9 25 c12 34 -6 46 -129 83 -55 16 -111 33 -124 37 -22 6
-27 22 -66 198 -23 105 -45 198 -48 207 -8 22 -67 62 -67 45z"/>
<path d="M5816 20424 c42 -206 71 -318 84 -324 27 -14 205 -72 224 -73 16 -2
22 9 33 68 7 39 12 75 11 82 -2 6 -77 66 -168 133 -91 68 -171 127 -177 133
-10 7 -12 3 -7 -19z"/>
<path d="M17470 20625 c-141 -45 -281 -171 -444 -400 -71 -99 -151 -259 -172
-345 -36 -142 -2 -265 96 -353 109 -98 227 -111 368 -41 183 90 467 453 547
699 23 69 27 96 23 152 -9 118 -80 218 -195 274 -57 28 -161 34 -223 14z m194
-85 c95 -36 186 -138 186 -210 0 -18 -8 -10 -36 36 -46 76 -65 96 -122 127
-63 34 -111 42 -172 27 -154 -37 -381 -277 -515 -545 -68 -136 -89 -222 -81
-325 5 -61 4 -71 -6 -55 -21 34 -23 194 -3 261 42 147 189 374 342 527 87 87
152 133 227 159 67 23 114 22 180 -2z"/>
<path d="M18686 19413 l-197 -206 21 -21 21 -21 52 55 c28 30 109 115 180 189
l128 135 71 -70 c97 -95 155 -175 163 -225 4 -26 3 -45 -4 -52 -8 -8 -11 -5
-11 13 0 44 -42 110 -122 196 -44 46 -85 84 -92 84 -11 0 -336 -333 -336 -344
0 -3 18 -22 40 -42 189 -171 348 -191 470 -58 124 135 117 275 -21 429 -67 75
-143 145 -157 145 -5 0 -98 -93 -206 -207z"/>
<path d="M10825 16933 c-482 -42 -802 -134 -1066 -308 -95 -63 -272 -239 -336
-335 -79 -118 -100 -168 -165 -387 -86 -295 -87 -295 69 -490 85 -107 460
-505 565 -601 210 -191 409 -279 823 -365 200 -42 888 -159 1060 -181 416 -52
864 -56 1238 -10 169 20 443 77 557 114 164 54 427 190 570 293 85 62 280 263
336 348 105 157 195 372 236 562 17 83 22 136 22 287 0 247 -30 422 -130 750
-19 63 -38 123 -40 132 -5 17 -8 16 -47 -3 -23 -12 -62 -35 -86 -52 -31 -21
-60 -32 -95 -35 -44 -4 -57 -10 -101 -52 -61 -58 -58 -57 -229 -114 -275 -93
-477 -126 -763 -126 -312 0 -580 39 -1226 180 -615 133 -795 160 -1078 160
-183 0 -290 -14 -407 -54 -69 -24 -416 -196 -408 -203 1 -2 23 4 47 13 68 24
272 71 389 89 145 23 468 31 627 15 284 -27 532 -80 1025 -219 626 -177 826
-215 1128 -214 256 0 456 44 679 149 52 24 97 42 100 39 2 -3 -31 -41 -75 -84
-119 -117 -260 -177 -469 -201 -317 -35 -645 13 -1535 226 -790 190 -1117 239
-1413 214 -279 -24 -421 -71 -766 -253 -97 -51 -189 -98 -204 -105 l-28 -12
18 31 c30 52 168 193 265 272 201 163 457 308 608 346 190 47 265 55 525 55
347 0 497 -22 1150 -169 651 -148 794 -169 1135 -170 197 0 266 4 350 19 98
17 377 91 445 118 80 31 63 49 -33 34 -37 -5 -231 -10 -432 -10 -481 -1 -577
10 -1305 154 -460 91 -707 131 -920 150 -110 9 -516 11 -610 3z m202 -704
c182 -24 484 -116 808 -244 245 -98 430 -155 606 -190 140 -27 382 -49 471
-43 77 6 60 -8 -33 -28 -149 -32 -412 -1 -716 86 -76 21 -246 75 -378 120
-132 45 -324 110 -426 145 -285 96 -389 119 -539 120 -105 0 -143 -5 -238 -29
-62 -15 -116 -26 -118 -23 -9 9 159 69 231 82 88 16 230 18 332 4z m-397 -279
c105 -14 226 -45 355 -92 105 -38 185 -75 600 -271 276 -130 612 -234 883
-272 154 -22 413 -17 707 15 109 11 213 20 230 18 27 -3 24 -6 -45 -40 -132
-65 -314 -101 -594 -117 -191 -12 -302 -4 -492 34 -254 51 -384 104 -936 381
-562 281 -588 291 -836 304 -85 5 -156 11 -159 14 -11 11 3 16 63 25 81 12
136 12 224 1z"/>
<path d="M9050 15480 c-187 -49 -328 -159 -399 -312 -83 -177 -97 -362 -62
-808 26 -322 54 -537 116 -895 64 -366 112 -659 120 -735 l6 -66 -56 -23 c-86
-36 -167 -116 -215 -215 -95 -192 -103 -448 -29 -886 41 -244 135 -659 165
-735 30 -76 77 -133 146 -177 l51 -33 -7 -120 c-3 -66 -22 -253 -42 -415 -26
-219 -37 -352 -41 -517 l-6 -222 85 -83 c80 -78 139 -168 163 -246 7 -23 6
-23 -29 -8 -20 8 -67 35 -105 59 -37 25 -79 50 -91 57 l-23 12 6 -158 c18
-508 219 -1220 436 -1544 43 -65 238 -278 245 -268 2 1 -3 53 -10 113 -8 61
-13 114 -11 119 5 14 110 -194 142 -279 14 -38 36 -80 48 -93 53 -58 410 -267
652 -383 l120 -58 3 169 c2 142 5 168 17 164 29 -11 75 -103 120 -239 30 -90
55 -149 71 -166 29 -31 115 -60 349 -118 318 -79 362 -86 565 -86 237 0 297
12 729 144 96 29 142 48 163 68 30 29 59 96 84 201 20 78 42 126 81 173 l28
33 5 -172 5 -172 140 63 c241 109 456 239 581 351 72 65 112 136 175 311 l44
120 12 -95 c6 -52 12 -106 12 -119 1 -22 8 -17 59 39 139 153 248 327 335 533
138 329 245 820 264 1214 l6 135 -66 -46 c-69 -49 -175 -102 -184 -93 -9 9 56
115 134 219 115 153 118 161 117 363 -1 178 -8 246 -75 725 -23 162 -38 296
-33 297 5 2 38 18 74 36 58 29 69 39 97 92 83 154 127 338 239 995 25 150 38
259 41 362 l5 146 -47 144 -47 143 -56 45 c-30 25 -76 63 -100 85 l-44 40 6
70 c10 101 40 289 86 525 90 468 116 683 107 905 -7 176 -35 304 -93 421 -20
41 -39 76 -43 78 -3 2 -112 -58 -241 -135 -129 -76 -239 -140 -243 -142 -5 -1
17 -43 48 -92 94 -151 128 -228 133 -312 6 -91 -4 -142 -80 -406 -79 -273 -81
-317 -19 -517 53 -169 58 -234 37 -468 -9 -101 -13 -189 -9 -197 5 -7 32 -34
61 -60 l52 -47 0 -70 c0 -168 -87 -601 -180 -893 -21 -67 -59 -228 -85 -358
-25 -131 -61 -290 -80 -355 -70 -240 -202 -534 -305 -677 -60 -83 -123 -200
-118 -216 4 -11 143 -71 231 -100 65 -21 95 -18 126 15 33 35 51 101 61 230 6
67 17 144 25 171 8 28 19 73 25 102 12 55 23 59 52 19 19 -26 48 -119 48 -154
0 -14 15 -66 33 -116 31 -88 32 -96 32 -251 0 -148 -2 -165 -26 -232 -85 -231
-287 -362 -560 -363 -169 0 -409 59 -586 145 -79 39 -125 55 -153 55 -22 0
-102 -14 -178 -31 -126 -28 -148 -30 -267 -26 -115 5 -149 10 -295 51 -353 99
-440 100 -818 7 -269 -66 -355 -69 -592 -21 -136 28 -176 23 -308 -39 -263
-121 -578 -174 -763 -126 -191 49 -322 188 -381 402 -17 63 -21 107 -22 228 0
164 20 276 70 385 30 66 74 125 84 113 9 -9 45 -212 55 -308 10 -87 33 -186
51 -213 26 -40 77 -55 139 -42 47 10 166 74 245 132 l23 17 -55 60 c-30 34
-77 104 -105 158 -96 184 -149 369 -248 864 -68 337 -81 389 -139 533 -57 141
-136 492 -136 609 0 23 -5 60 -10 82 -25 99 -38 182 -33 208 3 17 23 43 50 65
25 20 58 49 75 63 l31 25 -22 126 c-23 140 -27 233 -10 293 6 22 31 84 56 139
57 124 73 183 73 271 0 93 -18 164 -83 331 -104 266 -111 375 -37 559 97 244
288 417 539 490 68 20 76 25 73 46 -7 65 -133 242 -382 539 -89 107 -172 212
-184 232 -11 21 -25 38 -31 37 -5 0 -44 -9 -85 -19z m-220 -3037 c1 -10 7 -66
14 -126 7 -59 10 -110 7 -112 -2 -3 -46 -5 -98 -5 l-93 0 0 -27 c0 -16 5 -137
12 -271 11 -239 12 -243 32 -238 12 3 29 6 39 6 9 0 17 6 17 13 0 6 9 23 19
36 22 29 21 31 45 -94 25 -127 36 -249 36 -398 0 -118 -3 -145 -21 -184 -11
-25 -18 -51 -15 -58 3 -8 -2 -11 -14 -8 -25 7 -68 112 -114 273 -162 579 -135
1023 73 1176 53 39 61 41 61 17z m5547 -73 c114 -111 146 -282 108 -580 -7
-63 -21 -182 -30 -265 -30 -290 -96 -524 -152 -542 -7 -3 -20 8 -29 23 -30 46
-30 213 0 474 15 123 28 226 31 228 2 2 24 -8 49 -23 42 -25 45 -25 54 -8 18
34 44 273 40 367 -6 136 -34 170 -155 191 -79 13 -81 20 -34 113 47 93 44 93
118 22z"/>
<path d="M9775 12649 c-235 -24 -308 -59 -464 -221 -64 -66 -135 -131 -158
-144 -65 -39 -69 -48 -42 -91 19 -30 25 -58 30 -138 3 -55 20 -163 36 -240 17
-77 34 -162 37 -190 23 -166 77 -313 162 -443 204 -313 510 -440 852 -352 274
69 554 269 770 549 196 253 247 399 259 731 l5 175 42 43 41 43 -30 -7 c-61
-16 -77 -11 -112 35 -18 23 -56 62 -84 85 -28 22 -65 53 -83 68 l-31 27 115
-5 c136 -5 853 -24 925 -24 l50 0 -57 -53 c-31 -28 -72 -65 -90 -82 -19 -16
-39 -38 -45 -49 -10 -18 -16 -17 -149 19 -167 46 -264 51 -329 18 l-39 -21
164 -4 c143 -4 175 -8 235 -29 l70 -25 0 -199 c0 -194 1 -203 28 -280 41 -116
136 -306 208 -413 258 -386 653 -630 1029 -635 117 -1 185 12 277 53 217 98
389 323 493 645 24 77 40 160 65 359 18 142 38 263 44 269 6 6 11 28 11 49 0
32 -5 41 -37 62 -20 14 -56 50 -79 80 -24 30 -93 97 -153 149 -119 101 -149
115 -300 142 -176 31 -366 38 -816 31 -242 -3 -519 -11 -615 -16 -317 -17
-746 -11 -1235 15 -460 25 -843 30 -1000 14z"/>
<path d="M11958 10325 c-25 -7 -106 -40 -180 -73 -73 -33 -151 -65 -173 -71
-94 -26 -197 -6 -361 67 -157 72 -211 85 -308 80 -158 -9 -304 -79 -546 -259
-184 -138 -511 -363 -619 -426 -176 -104 -317 -148 -422 -132 -91 14 -140 58
-186 168 l-24 56 5 -100 c6 -112 21 -168 67 -256 109 -203 316 -276 614 -213
146 31 372 118 670 259 549 259 796 339 1050 339 231 0 365 -46 1039 -358 429
-199 615 -259 806 -259 305 -1 495 177 506 473 l4 105 -18 -52 c-24 -68 -57
-114 -100 -144 -28 -19 -51 -25 -111 -27 -65 -3 -88 1 -160 27 -152 55 -282
135 -666 407 -355 251 -521 351 -644 388 -64 19 -177 20 -243 1z"/>
<path d="M4273 19585 c-118 -33 -226 -136 -273 -261 l-21 -57 88 -91 c293
-305 274 -288 295 -270 10 10 18 21 18 25 0 4 -53 63 -117 131 -64 68 -137
144 -161 169 l-44 46 27 53 c50 98 158 188 246 204 37 7 139 -10 139 -23 0 -3
-35 -6 -77 -6 -59 0 -90 -6 -124 -22 -52 -23 -120 -86 -143 -131 -34 -66 -32
-69 129 -241 l150 -160 75 78 c174 179 197 340 69 472 -80 82 -177 112 -276
84z"/>
<path d="M4743 19097 c-74 -38 -195 -132 -277 -216 l-59 -60 116 -123 c64 -68
163 -172 220 -233 l105 -110 22 23 22 24 -93 96 c-52 53 -141 146 -198 206
l-103 108 63 65 c76 77 157 141 219 174 53 28 179 34 202 10 11 -11 7 -13 -28
-7 -97 14 -204 -39 -342 -169 l-75 -71 189 -198 189 -199 91 97 c111 117 154
193 162 281 6 80 -25 151 -99 230 -104 110 -210 133 -326 72z"/>
<path d="M3850 16529 c-315 -93 -625 -383 -804 -754 -152 -314 -178 -562 -105
-1010 12 -71 25 -134 29 -138 4 -5 36 24 71 64 216 247 265 278 477 309 45 7
79 16 77 20 -16 26 -57 346 -62 485 -15 399 85 671 347 948 86 91 90 97 63 96
-15 0 -57 -9 -93 -20z"/>
<path d="M19177 16468 c112 -114 184 -213 243 -329 88 -176 120 -327 120 -563
0 -151 -16 -324 -45 -473 -8 -43 -15 -81 -15 -85 0 -3 24 -9 53 -13 127 -16
235 -54 310 -109 16 -11 79 -78 139 -148 60 -71 112 -128 117 -128 4 0 15 44
25 98 82 472 57 743 -97 1057 -59 120 -121 221 -186 303 -186 233 -417 399
-637 456 -116 30 -118 25 -27 -66z"/>
<path d="M7526 3326 l-220 -214 27 -86 c14 -47 36 -134 48 -194 12 -59 26
-111 29 -115 13 -15 69 21 65 40 -21 101 -31 142 -58 226 l-31 98 177 177
c177 177 177 178 184 230 3 29 4 52 2 52 -2 -1 -103 -97 -223 -214z"/>
<path d="M7583 3218 c-141 -142 -151 -155 -141 -178 12 -31 54 -202 63 -253
l6 -37 29 15 c15 8 55 24 87 36 32 12 62 25 67 30 8 7 49 513 43 532 -1 4 -70
-61 -154 -145z"/>
<path d="M9177 3156 c-31 -7 -61 -17 -66 -22 -11 -12 -146 -602 -139 -609 3
-3 18 -7 34 -8 l28 -2 63 274 c34 151 65 276 67 278 3 3 40 7 83 10 201 13
358 -67 412 -211 24 -65 24 -66 12 -66 -6 0 -24 27 -42 60 -57 107 -156 174
-276 186 -81 9 -161 -10 -168 -40 -69 -292 -113 -501 -107 -506 11 -10 108
-29 201 -40 210 -24 350 38 418 184 25 54 28 72 28 161 0 85 -3 106 -23 143
-91 170 -306 255 -525 208z"/>
<path d="M8936 2393 c-23 -78 -165 -726 -161 -733 4 -6 19 -10 34 -10 l27 0
74 323 c40 177 76 326 80 330 12 13 172 -20 290 -59 119 -40 186 -79 226 -131
26 -34 69 -132 61 -139 -2 -3 -20 22 -41 55 -46 74 -82 105 -173 148 -80 37
-321 99 -333 86 -4 -4 -38 -138 -74 -298 -37 -159 -69 -299 -72 -311 -5 -19 4
-22 140 -48 243 -47 375 -27 469 69 75 77 124 231 113 353 -14 156 -120 244
-387 321 -78 23 -245 61 -266 61 -1 0 -4 -8 -7 -17z"/>
<path d="M12517 2890 c-27 -5 -50 -10 -52 -12 -2 -2 42 -351 98 -776 l102
-772 25 0 c14 0 30 4 37 8 8 5 -14 198 -83 717 -52 391 -93 719 -91 730 3 27
84 45 212 48 90 1 106 -1 159 -26 63 -29 71 -43 16 -27 -63 18 -176 23 -264
10 -77 -11 -86 -14 -86 -34 0 -21 181 -1409 184 -1413 6 -8 195 40 234 58 103
50 200 188 237 339 26 103 30 313 11 467 -51 399 -190 626 -416 677 -73 17
-239 20 -323 6z"/>
<path d="M10862 2395 l-114 -284 69 -84 c39 -47 96 -121 127 -166 32 -44 59
-81 61 -81 2 0 13 14 25 30 l22 30 -48 67 c-26 36 -76 99 -110 138 l-64 73 94
231 94 230 -16 51 c-9 27 -18 50 -21 50 -3 0 -57 -128 -119 -285z"/>
<path d="M11023 2480 c-11 -25 -48 -116 -82 -202 l-64 -157 52 -58 c28 -32 73
-90 98 -129 l47 -72 73 75 73 75 -89 256 -89 257 -19 -45z"/>
</g>
</svg>
